<?xml version="1.0" encoding="UTF-8"?><svg id="Layer_1" xmlns="http://www.w3.org/2000/svg" viewBox="0 0 112.65 30.18"><defs><style>.cls-1{font-family:NeulisNeue-SemiBold, 'Neulis Neue';font-size:24px;font-weight:600;}.cls-1,.cls-2{fill:#c0dbd5;}.cls-2{stroke-width:0px;}.cls-3{letter-spacing:-.03em;}.cls-4{letter-spacing:-.02em;}</style></defs><text class="cls-1" transform="translate(0 23.26)"><tspan x="0" y="0">th</tspan><tspan class="cls-4" x="25.8" y="0">r</tspan><tspan class="cls-3" x="34.68" y="0">o</tspan><tspan x="48.62" y="0">wn</tspan></text><path class="cls-2" d="M91.02,12.17c-.3-.61-.63-1.19-.86-1.8-.21-.55-.03-.82.53-1,1.25-.41,2.49-.81,3.74-1.21.07-.02.13-.05.25-.1-1.06-.91-1.81-2.01-2.2-3.24-.58,0-1.13.09-1.63-.02-1.08-.23-1.77-1.13-1.81-2.21-.03-1.07.72-2.12,1.8-2.46.86-.27,1.67-.15,2.41.41.11.08.25.14.38.16,3.66.66,7.33,1.31,11,1.96.41.07.82.14,1.23.22.57.11.69.24.74.83.01.14.02.28.03.45.24-.07.46-.13.67-.2.69-.22,1.38-.45,2.07-.68.52-.17.87-.02,1,.53.12.47.21.96.24,1.44.06,1.19-.05,2.36-.39,3.51-.36,1.19-.95,2.24-1.81,3.13-.07.07-.13.14-.2.21-.01.02-.02.04-.04.1.11,0,.21.02.31.02,1.17,0,2.34,0,3.52,0,.49,0,.63.14.65.64.02.79-.18,1.54-.5,2.25-1.25,2.76-3.14,4.96-5.83,6.39-.58.31-.83.6-.71,1.22.02.12,0,.24,0,.36-.02.31-.19.45-.49.45-3.11-.04-6.22-.09-9.33-.13-.58,0-.67-.12-.66-.7,0-.02,0-.05,0-.07.06-.52-.14-.79-.65-1.03-2.99-1.43-5.24-3.6-6.48-6.72-.23-.57-.33-1.19-.44-1.8-.12-.65.15-.93.83-.93.78,0,1.55,0,2.33,0,.12,0,.24,0,.29,0ZM104.73,22.6c0-.24.02-.53,0-.81-.03-.4.12-.62.51-.74.29-.09.59-.21.85-.37,2.53-1.5,4.36-3.61,5.43-6.36.14-.37.2-.78.31-1.24h-23.39c.04.23.08.47.14.71.6,2.25,1.97,3.97,3.72,5.44.97.81,2.07,1.42,3.22,1.91.35.15.45.39.46.72,0,.08.02.17,0,.25-.04.33.09.45.44.45,1.16,0,2.32.03,3.48.03,1.59,0,3.18,0,4.82,0ZM109.64,4.13c-6.26,2.03-12.47,4.05-18.72,6.08.27.71.63,1.29,1.24,1.68.21.13.47.27.7.27,4.46.03,8.92.04,13.38.07.41,0,.69-.08,1.02-.38,1.46-1.33,2.25-2.97,2.48-4.9.11-.93.16-1.85-.1-2.82ZM93.53,1.59c-.04.06-.06.09-.08.12-.02.04-.04.09-.05.13-.49,1.66-.25,3.19.88,4.53.38.45.82.86,1.25,1.27.06.06.22.06.32.03,3.23-1.04,6.46-2.09,9.7-3.13.33-.11.26-.35.27-.58.02-.25-.17-.24-.33-.27-2.23-.4-4.46-.8-6.69-1.2-1.75-.31-3.5-.62-5.26-.93ZM91.69.88c-.76.04-1.32.36-1.62,1.03-.26.57-.2,1.12.23,1.6.48.52,1.08.61,1.74.42.23-.06.31-.18.33-.43.05-.58.11-1.16.24-1.73.13-.56.1-.68-.48-.83-.15-.04-.31-.05-.43-.06Z"/></svg>